Coordinates
version=1
nRows=16
nColumns=40
inDegrees=yes

Units are S.I. units (second, meters, Newtons, ...)
If the header above contains a line with 'inDegrees', this indicates whether rotational values are in degrees (yes) or radians (no).

endheader
time	pelvis_tilt	pelvis_list	pelvis_rotation	pelvis_tx	pelvis_ty	pelvis_tz	hip_flexion_r	hip_adduction_r	hip_rotation_r	knee_angle_r	knee_angle_r_beta	ankle_angle_r	subtalar_angle_r	mtp_angle_r	hip_flexion_l	hip_adduction_l	hip_rotation_l	knee_angle_l	knee_angle_l_beta	ankle_angle_l	subtalar_angle_l	mtp_angle_l	lumbar_extension	lumbar_bending	lumbar_rotation	arm_flex_r	arm_add_r	arm_rot_r	elbow_flex_r	pro_sup_r	wrist_flex_r	wrist_dev_r	arm_flex_l	arm_add_l	arm_rot_l	elbow_flex_l	pro_sup_l	wrist_flex_l	wrist_dev_l
      4.21000000	     -2.11463085	      5.44115116	      6.00781968	     -0.30615988	      1.05176988	     -0.77513743	     17.53431150	     -5.36475681	    -15.10979342	     33.90600209	      0.59177137	      6.04309806	      0.00000000	      0.00000000	     18.08011048	     -9.22937598	     -8.17720161	     95.98371686	      1.67523189	    -23.25827385	      0.00000000	      0.00000000	     -6.62051773	      1.11413932	      1.92063321	     89.93551911	    -19.99769627	     26.02067696	     37.53714691	     82.83812647	      0.00000000	      0.00000000	     89.93204567	     -8.68359629	     29.68207882	     38.38109970	     84.34534836	      0.00000000	      0.00000000
      4.21500000	     -2.14582372	      5.46574977	      6.00667864	     -0.30636387	      1.05133842	     -0.77515273	     17.65985661	     -5.40097944	    -15.03881773	     34.06379607	      0.59452540	      6.09269767	      0.00000000	      0.00000000	     18.10018843	     -9.19496445	     -8.16358966	     96.00864936	      1.67566704	    -23.32286045	      0.00000000	      0.00000000	     -6.62891672	      1.08952004	      1.92749267	     89.93559695	    -20.03021315	     26.03957948	     37.58156601	     82.49207911	      0.00000000	      0.00000000	     89.93212736	     -8.67102559	     29.64941984	     38.38077654	     84.25875580	      0.00000000	      0.00000000
      4.22000000	     -2.18930550	      5.43620790	      6.03932239	     -0.30661296	      1.05083368	     -0.77512313	     17.79495419	     -5.38607590	    -15.02102789	     34.22884956	      0.59740612	      6.17617204	      0.00000000	      0.00000000	     18.17634081	     -9.21724747	     -8.08633899	     96.09114691	      1.67710690	    -23.41581816	      0.00000000	      0.00000000	     -6.61573537	      1.13322204	      1.88354815	     89.93564586	    -19.96056429	     25.92792707	     37.58721193	     82.61145042	      0.00000000	      0.00000000	     89.93259264	     -8.68240263	     29.60835855	     38.34939832	     84.38962399	      0.00000000	      0.00000000
      4.22500000	     -2.23099110	      5.44318656	      6.02667751	     -0.30680249	      1.05036459	     -0.77505692	     17.92746886	     -5.38649178	    -14.92999804	     34.38858337	      0.60019400	      6.25828521	      0.00000000	      0.00000000	     18.21348257	     -9.24452244	     -8.10730686	     96.12996940	      1.67778448	    -23.50580180	      0.00000000	      0.00000000	     -6.61272858	      1.12529700	      1.88456961	     89.93575023	    -19.93346597	     25.86047138	     37.55546213	     82.59904632	      0.00000000	      0.00000000	     89.93270343	     -8.68486598	     29.49472213	     38.39687681	     84.33949268	      0.00000000	      0.00000000
      4.23000000	     -2.29202802	      5.47600568	      6.03714254	     -0.30702719	      1.04983162	     -0.77507641	     18.09428317	     -5.43618504	    -14.87768873	     34.58899106	      0.60369178	      6.35592312	      0.00000000	      0.00000000	     18.27611689	     -9.19327062	     -8.07262493	     96.18205355	      1.67869352	    -23.59556260	      0.00000000	      0.00000000	     -6.58685691	      1.08161389	      1.89874030	     89.93596119	    -19.99204497	     25.87042187	     37.59553541	     82.42895073	      0.00000000	      0.00000000	     89.93302281	     -8.65649737	     29.42114205	     38.45210182	     84.27207604	      0.00000000	      0.00000000
      4.23500000	     -2.31369340	      5.42882676	      6.08040991	     -0.30723814	      1.04930835	     -0.77505504	     18.18470095	     -5.38839255	    -14.84974366	     34.70375389	      0.60569477	      6.44543996	      0.00000000	      0.00000000	     18.32174120	     -9.23683712	     -7.98352402	     96.25033203	      1.67988520	    -23.65756975	      0.00000000	      0.00000000	     -6.59678889	      1.13598492	      1.83104488	     89.93601119	    -19.92558309	     25.69536198	     37.60054118	     82.61766859	      0.00000000	      0.00000000	     89.93330701	     -8.69924071	     29.33028608	     38.51984097	     84.35312560	      0.00000000	      0.00000000
      4.24000000	     -2.42114310	      5.46104005	      6.07477636	     -0.30750818	      1.04872408	     -0.77497448	     18.42916870	     -5.43446401	    -14.74198231	     34.94387388	      0.60988565	      6.55047676	      0.00000000	      0.00000000	     18.45226767	     -9.18330946	     -7.95678129	     96.32420616	      1.68117455	    -23.73560865	      0.00000000	      0.00000000	     -6.53282825	      1.09747586	      1.82460134	     89.93623913	    -19.92318602	     25.71060694	     37.63746450	     82.67257364	      0.00000000	      0.00000000	     89.93356229	     -8.71611567	     29.26459417	     38.53952288	     84.35865584	      0.00000000	      0.00000000
      4.24500000	     -2.47053569	      5.44522789	      6.12653704	     -0.30779819	      1.04818676	     -0.77495152	     18.56523014	     -5.42305175	    -14.70189815	     35.08835394	      0.61240731	      6.65923168	      0.00000000	      0.00000000	     18.53466366	     -9.18627066	     -7.86288629	     96.39703301	      1.68244562	    -23.87153218	      0.00000000	      0.00000000	     -6.53720212	      1.12027763	      1.73999357	     89.93626443	    -19.85382635	     25.63441179	     37.64271254	     82.45907946	      0.00000000	      0.00000000	     89.93380702	     -8.79043532	     29.21720024	     38.66980858	     84.29533623	      0.00000000	      0.00000000
      4.25000000	     -2.51589209	      5.48017614	      6.16179315	     -0.30806216	      1.04770535	     -0.77500559	     18.71308037	     -5.47428800	    -14.59993575	     35.28633111	      0.61586266	      6.77198525	      0.00000000	      0.00000000	     18.58312387	     -9.10763701	     -7.79475721	     96.43117648	      1.68304153	    -23.95806221	      0.00000000	      0.00000000	     -6.54709418	      1.08925195	      1.69769481	     89.93659499	    -19.84032800	     25.54231944	     37.68367889	     82.50128359	      0.00000000	      0.00000000	     89.93408059	     -8.77132731	     29.07578972	     38.68615331	     84.33483508	      0.00000000	      0.00000000
      4.25500000	     -2.54329448	      5.49771687	      6.22324425	     -0.30829564	      1.04728196	     -0.77511820	     18.82006206	     -5.52261687	    -14.59232582	     35.45163262	      0.61874771	      6.86629485	      0.00000000	      0.00000000	     18.63630857	     -9.02249070	     -7.67768728	     96.46908017	      1.68370308	    -24.02746696	      0.00000000	      0.00000000	     -6.55783334	      1.07748787	      1.64123346	     89.93658168	    -19.85534909	     25.46243299	     37.69832917	     82.60243902	      0.00000000	      0.00000000	     89.93439953	     -8.74926268	     28.97317379	     38.73612761	     84.23989888	      0.00000000	      0.00000000
      4.26000000	     -2.56317455	      5.47378590	      6.31809472	     -0.30851413	      1.04675739	     -0.77525457	     18.91712555	     -5.53426811	    -14.61610351	     35.61649933	      0.62162518	      6.99056904	      0.00000000	      0.00000000	     18.69556852	     -8.99566366	     -7.53337209	     96.54506741	      1.68502930	    -24.11415421	      0.00000000	      0.00000000	     -6.56304407	      1.11007806	      1.54987147	     89.93671296	    -19.87425542	     25.43316518	     37.72706897	     82.69967342	      0.00000000	      0.00000000	     89.93460440	     -8.73329511	     28.86630126	     38.75352251	     84.27358457	      0.00000000	      0.00000000
      4.26500000	     -2.62220540	      5.51751852	      6.36211272	     -0.30875310	      1.04620871	     -0.77530515	     19.07948177	     -5.61334596	    -14.59708285	     35.82888176	      0.62533195	      7.11159955	      0.00000000	      0.00000000	     18.77418759	     -8.89254783	     -7.44277478	     96.60711362	      1.68611221	    -24.18739294	      0.00000000	      0.00000000	     -6.54787644	      1.07082563	      1.48484662	     89.93695454	    -19.83629949	     25.42354016	     37.71460557	     82.50514638	      0.00000000	      0.00000000	     89.93490198	     -8.75158133	     28.81215799	     38.78675073	     84.26784572	      0.00000000	      0.00000000
      4.27000000	     -2.66423346	      5.50415049	      6.38467469	     -0.30898484	      1.04566754	     -0.77527576	     19.21941878	     -5.61331135	    -14.54597883	     36.01317432	      0.62854847	      7.21448523	      0.00000000	      0.00000000	     18.82320763	     -8.87686166	     -7.36453150	     96.65697557	      1.68698247	    -24.31640498	      0.00000000	      0.00000000	     -6.56089513	      1.07924994	      1.45572657	     89.93718180	    -19.84863799	     25.37594804	     37.77844040	     82.48493069	      0.00000000	      0.00000000	     89.93519080	     -8.75050997	     28.71873278	     38.88577474	     84.09578033	      0.00000000	      0.00000000
      4.27500000	     -2.70201868	      5.47368222	      6.42282519	     -0.30924456	      1.04511881	     -0.77531622	     19.34714565	     -5.60288234	    -14.52795979	     36.16840813	      0.63125781	      7.31830881	      0.00000000	      0.00000000	     18.89469933	     -8.86331928	     -7.25740960	     96.74814212	      1.68857363	    -24.43787226	      0.00000000	      0.00000000	     -6.55206937	      1.11699643	      1.42575884	     89.93736474	    -19.85122113	     25.28809800	     37.79579818	     82.78013820	      0.00000000	      0.00000000	     89.93534841	     -8.74748083	     28.71644666	     38.92141545	     84.11207683	      0.00000000	      0.00000000
      4.28000000	     -2.69854602	      5.46438391	      6.45755016	     -0.30948495	      1.04470614	     -0.77538463	     19.42537590	     -5.61739599	    -14.52824315	     36.32992430	      0.63407680	      7.40534054	      0.00000000	      0.00000000	     18.89335151	     -8.85465534	     -7.18341042	     96.79271064	      1.68935149	    -24.51019235	      0.00000000	      0.00000000	     -6.59994316	      1.13367126	      1.39808145	     89.93733900	    -19.87472323	     25.23254645	     37.84629648	     82.69073947	      0.00000000	      0.00000000	     89.93548129	     -8.71767219	     28.54744115	     38.95642969	     84.18897700	      0.00000000	      0.00000000
      4.28500000	     -2.74286093	      5.47320568	      6.48634268	     -0.30970672	      1.04422490	     -0.77545289	     19.56382538	     -5.65538695	    -14.49556539	     36.51499189	      0.63730683	      7.51559239	      0.00000000	      0.00000000	     18.93628305	     -8.79481028	     -7.10600338	     96.83801659	      1.69014223	    -24.57841204	      0.00000000	      0.00000000	     -6.59425146	      1.12938055	      1.38009590	     89.93743625	    -19.90096948	     25.21648755	     37.83487399	     82.79080935	      0.00000000	      0.00000000	     89.93571472	     -8.69548404	     28.49810070	     38.97695983	     84.11776126	      0.00000000	      0.00000000
